<svg width="1280" height="480" viewBox="0 0 1280 480" xmlns="http://www.w3.org/2000/svg">
<defs>

  <!-- Background radial glow -->
  <radialGradient id="bgGlow" cx="43%" cy="50%" r="58%">
    <stop offset="0%"   stop-color="#0d1f3a"/>
    <stop offset="100%" stop-color="#060a12"/>
  </radialGradient>

  <!-- Subtle grid -->
  <pattern id="grid" width="40" height="40" patternUnits="userSpaceOnUse">
    <path d="M 40 0 L 0 0 0 40" fill="none" stroke="#0d1a2e" stroke-width="0.6"/>
  </pattern>

  <!-- IDEA sphere (gold) — light source top-left -->
  <radialGradient id="sgold" cx="32%" cy="26%" r="72%">
    <stop offset="0%"   stop-color="#fff4b0"/>
    <stop offset="22%"  stop-color="#f0c040"/>
    <stop offset="60%"  stop-color="#b06a00"/>
    <stop offset="100%" stop-color="#0f0800"/>
  </radialGradient>

  <!-- Specialist sphere (blue) -->
  <radialGradient id="sblue" cx="32%" cy="26%" r="72%">
    <stop offset="0%"   stop-color="#c8e4ff"/>
    <stop offset="22%"  stop-color="#58a6ff"/>
    <stop offset="60%"  stop-color="#0e3f9e"/>
    <stop offset="100%" stop-color="#00040f"/>
  </radialGradient>

  <!-- Abogado del Diablo sphere (red) -->
  <radialGradient id="sred" cx="32%" cy="26%" r="72%">
    <stop offset="0%"   stop-color="#ffd0d0"/>
    <stop offset="22%"  stop-color="#f85149"/>
    <stop offset="60%"  stop-color="#8a0e0e"/>
    <stop offset="100%" stop-color="#0f0000"/>
  </radialGradient>

  <!-- Evaluador Final sphere (green) -->
  <radialGradient id="sgreen" cx="32%" cy="26%" r="72%">
    <stop offset="0%"   stop-color="#b8ffd0"/>
    <stop offset="22%"  stop-color="#56d364"/>
    <stop offset="60%"  stop-color="#0e6e28"/>
    <stop offset="100%" stop-color="#00080a"/>
  </radialGradient>

  <!-- Title gradient: white → blue → purple -->
  <linearGradient id="titleGrad" x1="0%" y1="0%" x2="100%" y2="0%">
    <stop offset="0%"   stop-color="#e6edf3"/>
    <stop offset="48%"  stop-color="#58a6ff"/>
    <stop offset="100%" stop-color="#bc8cff"/>
  </linearGradient>

  <!-- Veredicto box gradient -->
  <linearGradient id="verdictBox" x1="0%" y1="0%" x2="0%" y2="100%">
    <stop offset="0%"   stop-color="#0c2215"/>
    <stop offset="100%" stop-color="#050c08"/>
  </linearGradient>

  <!-- Fade-out mask at right edge of left panel -->
  <linearGradient id="panelFade" x1="0%" y1="0%" x2="100%" y2="0%">
    <stop offset="0%"   stop-color="#060a12" stop-opacity="0"/>
    <stop offset="80%"  stop-color="#060a12" stop-opacity="0"/>
    <stop offset="100%" stop-color="#060a12" stop-opacity="1"/>
  </linearGradient>

  <!-- Pills -->
  <linearGradient id="pillRed"   x1="0%" y1="0%" x2="0%" y2="100%">
    <stop offset="0%" stop-color="#1e0808"/><stop offset="100%" stop-color="#0c0202"/>
  </linearGradient>
  <linearGradient id="pillBlue"  x1="0%" y1="0%" x2="0%" y2="100%">
    <stop offset="0%" stop-color="#081420"/><stop offset="100%" stop-color="#020810"/>
  </linearGradient>
  <linearGradient id="pillGold"  x1="0%" y1="0%" x2="0%" y2="100%">
    <stop offset="0%" stop-color="#1a1000"/><stop offset="100%" stop-color="#0a0700"/>
  </linearGradient>
  <linearGradient id="pillGreen" x1="0%" y1="0%" x2="0%" y2="100%">
    <stop offset="0%" stop-color="#061410"/><stop offset="100%" stop-color="#020a06"/>
  </linearGradient>

</defs>

<!-- ─── BACKGROUND ──────────────────────────────────────────────────── -->
<rect width="1280" height="480" fill="#060a12"/>
<rect width="1280" height="480" fill="url(#bgGlow)"/>
<rect width="1280" height="480" fill="url(#grid)"/>

<!-- Atmospheric depth glow behind left panel -->
<ellipse cx="280" cy="240" rx="300" ry="220" fill="#0a1e40" opacity="0.22"/>

<!-- Panel divider -->
<line x1="596" y1="20" x2="596" y2="460" stroke="#111e34" stroke-width="1"/>

<!-- ─── LEFT PANEL — COMMITTEE NETWORK ──────────────────────────────── -->

<text x="280" y="25" text-anchor="middle"
      font-family="monospace" font-size="9" fill="#1e3258" letter-spacing="5">
  COMITE DINAMICO
</text>

<!-- Connection lines — thick dark pass + thin bright pass for depth -->

<!-- IDEA (280,98) → agents (y=252) -->
<line x1="280" y1="138" x2="60"  y2="226" stroke="#09162a" stroke-width="3"/>
<line x1="280" y1="138" x2="170" y2="226" stroke="#09162a" stroke-width="3"/>
<line x1="280" y1="138" x2="280" y2="226" stroke="#09162a" stroke-width="3"/>
<line x1="280" y1="138" x2="390" y2="226" stroke="#09162a" stroke-width="3"/>
<line x1="280" y1="138" x2="500" y2="226" stroke="#09162a" stroke-width="3"/>

<line x1="280" y1="138" x2="60"  y2="226" stroke="#1a4880" stroke-width="0.8" opacity="0.7"/>
<line x1="280" y1="138" x2="170" y2="226" stroke="#1a4880" stroke-width="0.8" opacity="0.7"/>
<line x1="280" y1="138" x2="280" y2="226" stroke="#c07000" stroke-width="0.8" opacity="0.45"/>
<line x1="280" y1="138" x2="390" y2="226" stroke="#1a4880" stroke-width="0.8" opacity="0.7"/>
<line x1="280" y1="138" x2="500" y2="226" stroke="#8a1010" stroke-width="0.8" opacity="0.7"/>

<!-- Agents (y=252) → Evaluador (280,390) -->
<line x1="60"  y1="278" x2="280" y2="360" stroke="#09162a" stroke-width="3"/>
<line x1="170" y1="278" x2="280" y2="360" stroke="#09162a" stroke-width="3"/>
<line x1="280" y1="278" x2="280" y2="360" stroke="#09162a" stroke-width="3"/>
<line x1="390" y1="278" x2="280" y2="360" stroke="#09162a" stroke-width="3"/>
<line x1="500" y1="278" x2="280" y2="360" stroke="#09162a" stroke-width="3"/>

<line x1="60"  y1="278" x2="280" y2="360" stroke="#165a30" stroke-width="0.8" opacity="0.7"/>
<line x1="170" y1="278" x2="280" y2="360" stroke="#165a30" stroke-width="0.8" opacity="0.7"/>
<line x1="280" y1="278" x2="280" y2="360" stroke="#1a4880" stroke-width="0.8" opacity="0.5"/>
<line x1="390" y1="278" x2="280" y2="360" stroke="#165a30" stroke-width="0.8" opacity="0.7"/>
<line x1="500" y1="278" x2="280" y2="360" stroke="#8a1010" stroke-width="0.8" opacity="0.5"/>

<!-- ── IDEA SPHERE (gold, r=40, center 280,98) ── -->
<circle cx="280" cy="98" r="72" fill="#e3b341" opacity="0.02"/>
<circle cx="280" cy="98" r="60" fill="#e3b341" opacity="0.04"/>
<circle cx="280" cy="98" r="50" fill="#e3b341" opacity="0.06"/>
<circle cx="280" cy="98" r="40" fill="url(#sgold)"/>
<circle cx="280" cy="98" r="40" fill="none" stroke="#e3b341" stroke-width="1.2" opacity="0.45"/>
<!-- Shine spot -->
<ellipse cx="266" cy="83"  rx="10" ry="7"  fill="white" opacity="0.22" transform="rotate(-25 266 83)"/>
<!-- Label -->
<text x="280" y="93"  text-anchor="middle" font-family="monospace" font-size="12" font-weight="bold" fill="#1a0c00">IDEA</text>
<text x="280" y="108" text-anchor="middle" font-family="monospace" font-size="8"  fill="#5a3500">del usuario</text>

<!-- ── SPECIALIST SPHERES (blue, r=26, y=252) ── -->

<!-- Sp 1 x=60 -->
<circle cx="60"  cy="252" r="48" fill="#1f6feb" opacity="0.04"/>
<circle cx="60"  cy="252" r="38" fill="#1f6feb" opacity="0.07"/>
<circle cx="60"  cy="252" r="30" fill="#1f6feb" opacity="0.08"/>
<circle cx="60"  cy="252" r="26" fill="url(#sblue)"/>
<circle cx="60"  cy="252" r="26" fill="none" stroke="#58a6ff" stroke-width="0.8" opacity="0.4"/>
<ellipse cx="51" cy="242" rx="6" ry="4" fill="white" opacity="0.18" transform="rotate(-22 51 242)"/>
<text x="60"  y="248" text-anchor="middle" font-family="monospace" font-size="6.5" fill="#cce4ff">DEMANDA</text>
<text x="60"  y="260" text-anchor="middle" font-family="monospace" font-size="6.5" fill="#cce4ff">MERCADO</text>

<!-- Sp 2 x=170 -->
<circle cx="170" cy="252" r="48" fill="#1f6feb" opacity="0.04"/>
<circle cx="170" cy="252" r="38" fill="#1f6feb" opacity="0.07"/>
<circle cx="170" cy="252" r="30" fill="#1f6feb" opacity="0.08"/>
<circle cx="170" cy="252" r="26" fill="url(#sblue)"/>
<circle cx="170" cy="252" r="26" fill="none" stroke="#58a6ff" stroke-width="0.8" opacity="0.4"/>
<ellipse cx="161" cy="242" rx="6" ry="4" fill="white" opacity="0.18" transform="rotate(-22 161 242)"/>
<text x="170" y="248" text-anchor="middle" font-family="monospace" font-size="6.5" fill="#cce4ff">TECNICO</text>
<text x="170" y="260" text-anchor="middle" font-family="monospace" font-size="6.5" fill="#cce4ff">PRODUCTO</text>

<!-- Sp 3 x=280 -->
<circle cx="280" cy="252" r="48" fill="#1f6feb" opacity="0.04"/>
<circle cx="280" cy="252" r="38" fill="#1f6feb" opacity="0.07"/>
<circle cx="280" cy="252" r="30" fill="#1f6feb" opacity="0.08"/>
<circle cx="280" cy="252" r="26" fill="url(#sblue)"/>
<circle cx="280" cy="252" r="26" fill="none" stroke="#58a6ff" stroke-width="0.8" opacity="0.4"/>
<ellipse cx="271" cy="242" rx="6" ry="4" fill="white" opacity="0.18" transform="rotate(-22 271 242)"/>
<text x="280" y="248" text-anchor="middle" font-family="monospace" font-size="6.5" fill="#cce4ff">LEGAL</text>
<text x="280" y="260" text-anchor="middle" font-family="monospace" font-size="6.5" fill="#cce4ff">COMPLIANCE</text>

<!-- Sp 4 x=390 -->
<circle cx="390" cy="252" r="48" fill="#1f6feb" opacity="0.04"/>
<circle cx="390" cy="252" r="38" fill="#1f6feb" opacity="0.07"/>
<circle cx="390" cy="252" r="30" fill="#1f6feb" opacity="0.08"/>
<circle cx="390" cy="252" r="26" fill="url(#sblue)"/>
<circle cx="390" cy="252" r="26" fill="none" stroke="#58a6ff" stroke-width="0.8" opacity="0.4"/>
<ellipse cx="381" cy="242" rx="6" ry="4" fill="white" opacity="0.18" transform="rotate(-22 381 242)"/>
<text x="390" y="248" text-anchor="middle" font-family="monospace" font-size="6.5" fill="#cce4ff">FINANZAS</text>
<text x="390" y="260" text-anchor="middle" font-family="monospace" font-size="6.5" fill="#cce4ff">MARGENES</text>

<!-- Abogado del Diablo x=500 (red) -->
<circle cx="500" cy="252" r="48" fill="#da3633" opacity="0.05"/>
<circle cx="500" cy="252" r="38" fill="#da3633" opacity="0.09"/>
<circle cx="500" cy="252" r="30" fill="#da3633" opacity="0.10"/>
<circle cx="500" cy="252" r="26" fill="url(#sred)"/>
<circle cx="500" cy="252" r="26" fill="none" stroke="#f85149" stroke-width="0.9" opacity="0.5"/>
<ellipse cx="491" cy="242" rx="6" ry="4" fill="white" opacity="0.18" transform="rotate(-22 491 242)"/>
<text x="500" y="248" text-anchor="middle" font-family="monospace" font-size="6.5" fill="#ffd0d0">ABOGADO</text>
<text x="500" y="260" text-anchor="middle" font-family="monospace" font-size="6.5" fill="#ffd0d0">DEL DIABLO</text>

<!-- ── EVALUADOR FINAL (green, r=30, center 280,390) ── -->
<circle cx="280" cy="390" r="56" fill="#3fb950" opacity="0.04"/>
<circle cx="280" cy="390" r="46" fill="#3fb950" opacity="0.07"/>
<circle cx="280" cy="390" r="36" fill="#3fb950" opacity="0.08"/>
<circle cx="280" cy="390" r="30" fill="url(#sgreen)"/>
<circle cx="280" cy="390" r="30" fill="none" stroke="#3fb950" stroke-width="1.2" opacity="0.45"/>
<ellipse cx="269" cy="378" rx="7" ry="5" fill="white" opacity="0.18" transform="rotate(-22 269 378)"/>
<text x="280" y="385" text-anchor="middle" font-family="monospace" font-size="7" fill="#ccffdd">EVALUADOR</text>
<text x="280" y="398" text-anchor="middle" font-family="monospace" font-size="7" fill="#ccffdd">FINAL</text>

<!-- Stem: Evaluador → Veredicto -->
<line x1="280" y1="420" x2="280" y2="436" stroke="#165a30" stroke-width="1.5" opacity="0.7"/>

<!-- VEREDICTO pill -->
<rect x="196" y="436" width="168" height="34" rx="17" fill="url(#verdictBox)" stroke="#3fb950" stroke-width="1.2"/>
<rect x="197" y="437" width="166" height="1"  rx="1"  fill="#3fb950" opacity="0.25"/>
<text x="280" y="451" text-anchor="middle" font-family="monospace" font-size="9.5" font-weight="bold" fill="#3fb950" letter-spacing="2">VEREDICTO</text>
<text x="280" y="462" text-anchor="middle" font-family="monospace" font-size="7.5" fill="#1a5530" letter-spacing="1">D · A · V · C</text>

<!-- Right-edge fade mask -->
<rect x="528" y="0" width="68" height="480" fill="url(#panelFade)"/>

<!-- ─── RIGHT PANEL — BRANDING ───────────────────────────────────────── -->

<!-- Title line 1 -->
<text x="938" y="116"
      text-anchor="middle"
      font-family="monospace" font-size="52" font-weight="bold"
      fill="url(#titleGrad)" letter-spacing="4">
  CLAUDE
</text>

<!-- Title line 2 -->
<text x="938" y="178"
      text-anchor="middle"
      font-family="monospace" font-size="52" font-weight="bold"
      fill="url(#titleGrad)" letter-spacing="4">
  ORGANIGRAMER
</text>

<!-- Skill name -->
<text x="938" y="206"
      text-anchor="middle"
      font-family="monospace" font-size="12" fill="#1e3258" letter-spacing="2">
  idea-critical-organigramer
</text>

<!-- Separator -->
<line x1="625" y1="226" x2="1252" y2="226" stroke="#111e34" stroke-width="0.8"/>

<!-- Description -->
<text x="938" y="260"
      text-anchor="middle"
      font-family="monospace" font-size="13" fill="#8b949e">
  Evaluacion critica mediante un organigrama dinamico
</text>
<text x="938" y="278"
      text-anchor="middle"
      font-family="monospace" font-size="13" fill="#8b949e">
  construido desde cero para cada idea concreta.
</text>
<text x="938" y="298"
      text-anchor="middle"
      font-family="monospace" font-size="12" fill="#484f58">
  No complaciente. Exige evidencia. Sin hype.
</text>

<!-- Tag pills (total 500px, center 938, start 688) -->

<!-- Pill 1: NO COMPLACIENTE (140px) -->
<rect x="688" y="322" width="140" height="30" rx="15" fill="url(#pillRed)"  stroke="#da3633" stroke-width="1"/>
<rect x="689" y="323" width="138" height="1"  rx="1"  fill="#da3633" opacity="0.2"/>
<text x="758" y="341" text-anchor="middle" font-family="monospace" font-size="9.5" fill="#f85149">NO COMPLACIENTE</text>

<!-- Pill 2: DINAMICO (90px) -->
<rect x="840" y="322" width="90"  height="30" rx="15" fill="url(#pillBlue)" stroke="#1f6feb" stroke-width="1"/>
<rect x="841" y="323" width="88"  height="1"  rx="1"  fill="#1f6feb" opacity="0.2"/>
<text x="885" y="341" text-anchor="middle" font-family="monospace" font-size="9.5" fill="#58a6ff">DINAMICO</text>

<!-- Pill 3: EVIDENCIA (90px) -->
<rect x="942" y="322" width="90"  height="30" rx="15" fill="url(#pillGold)" stroke="#e3b341" stroke-width="1"/>
<rect x="943" y="323" width="88"  height="1"  rx="1"  fill="#e3b341" opacity="0.2"/>
<text x="987" y="341" text-anchor="middle" font-family="monospace" font-size="9.5" fill="#e3b341">EVIDENCIA</text>

<!-- Pill 4: VALIDAR PRIMERO (140px) -->
<rect x="1044" y="322" width="140" height="30" rx="15" fill="url(#pillGreen)" stroke="#3fb950" stroke-width="1"/>
<rect x="1045" y="323" width="138" height="1"  rx="1"  fill="#3fb950" opacity="0.2"/>
<text x="1114" y="341" text-anchor="middle" font-family="monospace" font-size="9.5" fill="#56d364">VALIDAR PRIMERO</text>

<!-- Separator 2 -->
<line x1="625" y1="370" x2="1252" y2="370" stroke="#111e34" stroke-width="0.8"/>

<!-- Stats: two centered lines -->
<text x="938" y="402"
      text-anchor="middle"
      font-family="monospace" font-size="11" fill="#484f58">
  6–12 agentes dinamicos  ·  11 dimensiones de evaluacion
</text>
<text x="938" y="420"
      text-anchor="middle"
      font-family="monospace" font-size="11" fill="#484f58">
  4 veredictos posibles  ·  12 pruebas de validacion
</text>

<!-- Small colored accent dots for stats -->
<circle cx="625" cy="398" r="2.5" fill="#1f6feb" opacity="0.7"/>
<circle cx="625" cy="418" r="2.5" fill="#3fb950" opacity="0.7"/>

<!-- Three accent dots: decorative bottom row -->
<circle cx="860" cy="446" r="2" fill="#58a6ff" opacity="0.5"/>
<circle cx="938" cy="446" r="2" fill="#bc8cff" opacity="0.5"/>
<circle cx="1016" cy="446" r="2" fill="#3fb950" opacity="0.5"/>

<!-- Bottom watermark -->
<text x="1252" y="466" text-anchor="end"
      font-family="monospace" font-size="9" fill="#111e34">
  Claude Code  ·  Skill
</text>

</svg>
